<?xml version="1.0" encoding="UTF-8" standalone="no"?>
<!-- Created with Inkscape (http://www.inkscape.org/) -->

<svg
   xmlns:dc="http://purl.org/dc/elements/1.1/"
   xmlns:cc="http://creativecommons.org/ns#"
   xmlns:rdf="http://www.w3.org/1999/02/22-rdf-syntax-ns#"
   xmlns:svg="http://www.w3.org/2000/svg"
   xmlns="http://www.w3.org/2000/svg"
   xmlns:sodipodi="http://sodipodi.sourceforge.net/DTD/sodipodi-0.dtd"
   xmlns:inkscape="http://www.inkscape.org/namespaces/inkscape"
   width="277.84537mm"
   height="140.71956mm"
   viewBox="0 0 984.49146 498.61261"
   id="svg4527"
   version="1.1"
   inkscape:version="0.91 r13725"
   sodipodi:docname="pirate_hat.svg">
  <defs
     id="defs4529" />
  <sodipodi:namedview
     id="base"
     pagecolor="#ffffff"
     bordercolor="#666666"
     borderopacity="1.0"
     inkscape:pageopacity="0.0"
     inkscape:pageshadow="2"
     inkscape:zoom="0.35"
     inkscape:cx="175.81717"
     inkscape:cy="-244.9794"
     inkscape:document-units="px"
     inkscape:current-layer="layer1"
     showgrid="false"
     fit-margin-top="0"
     fit-margin-left="0"
     fit-margin-right="0"
     fit-margin-bottom="0"
     inkscape:window-width="1855"
     inkscape:window-height="1056"
     inkscape:window-x="65"
     inkscape:window-y="24"
     inkscape:window-maximized="1" />
  <metadata
     id="metadata4532">
    <rdf:RDF>
      <cc:Work
         rdf:about="">
        <dc:format>image/svg+xml</dc:format>
        <dc:type
           rdf:resource="http://purl.org/dc/dcmitype/StillImage" />
        <dc:title></dc:title>
      </cc:Work>
    </rdf:RDF>
  </metadata>
  <g
     inkscape:label="Layer 1"
     inkscape:groupmode="layer"
     id="layer1"
     transform="translate(295.10289,211.22982)">
    <g
       transform="matrix(1.25,0,0,1.25,-810.82225,-281.79186)"
       id="g4514">
      <path
         d="m 784.35,57.33 c 2.84,-0.54 5.74,-0.91 8.65,-0.82 11.66,0.1 23.33,-0.11 34.98,0.11 19.22,1.84 38.31,5.97 56.26,13.17 19.55,7.84 37.56,19.6 52.35,34.63 11.5,11.45 21.18,24.61 29.56,38.49 16.39,27.15 27.04,57.31 43.49,84.44 8.68,14.43 19.34,27.97 32.96,38.03 12.99,9.8 29.18,14.96 45.41,14.99 23.11,0.06 45.53,-6.67 67.21,-14.04 10.3,-3.1 20.94,-6.18 31.81,-5.48 4.79,0.32 10.23,1.93 12.79,6.35 0.26,3.05 0.66,6.32 -0.35,9.26 -18.59,30.74 -42.94,57.48 -68.43,82.6 -25.34,25.33 -52.02,49.35 -75.94,76.06 -4.07,4.98 -7.25,10.63 -11.41,15.54 -2.01,2.18 -4.42,4.73 -7.63,4.63 -5.01,-0.52 -9.72,-2.4 -14.52,-3.77 -11.44,-3.52 -23.26,-5.5 -34.98,-7.83 -37.51,-7.07 -75.46,-11.71 -113.51,-14.56 -53.18,-3.83 -106.66,-4.06 -159.8,0.43 -44.33,3.84 -88.57,10.76 -131.23,23.65 -2.23,0.6 -4.4,1.61 -6.73,1.71 -13.65,-13.44 -26.22,-27.93 -39.38,-41.84 -24.7,-25.63 -50.97,-49.7 -75.32,-75.66 -17.38,-18.9 -33.88,-38.82 -47.15,-60.86 -1.04,-3.95 -1.68,-9.31 1.88,-12.25 2.02,-2.03 4.86,-2.97 7.65,-3.33 17.86,-1.32 35.21,4.23 51.8,10.19 18.53,6.58 38.08,13 58.01,10.43 17.88,-2.79 34.62,-11.72 47.49,-24.36 12.84,-12.4 22.24,-27.82 30.47,-43.53 17.71,-33.9 30.11,-71.23 55.26,-100.73 13.53,-15.26 30.35,-27.52 48.77,-36.22 21.93,-10.27 45.81,-15.46 69.58,-19.43 m 69.05,153.02 c -3.13,2.78 -1.1,7.1 -1.25,10.63 -0.66,2.53 -3.39,3.48 -5.24,4.96 -13.59,9.7 -27.37,19.18 -40.92,28.91 -11.45,-4.99 -22.71,-10.45 -33.89,-16.02 -4.54,-2.67 -9.69,-4.7 -13.28,-8.67 -1.81,-3.25 -1.37,-7.16 -2.29,-10.66 -1.26,-7.33 -12.29,-8.98 -16.7,-3.68 -2.85,4.29 -1.54,9.69 -0.41,14.33 -4.17,1.54 -9.27,2.38 -11.81,6.44 -1.79,2.62 -0.45,6.1 1.87,7.91 2.63,2.14 5.18,4.81 8.57,5.68 4.97,1.3 7.62,-6.68 12.58,-3.92 13.68,6.17 27.28,12.53 40.88,18.88 -11.09,7.84 -22.06,16.04 -34.18,22.23 -4.9,3.03 -9.75,-1.35 -14.48,-2.43 -6.55,-1.67 -12.25,5.48 -11.38,11.59 1.58,5.47 7.72,7.32 12.6,8.75 -0.65,4.51 -2.64,9.48 -0.15,13.78 1.6,2.73 5.3,3.01 7.99,1.86 3.53,-1.45 8.2,-2.23 9.85,-6.18 0.95,-2.84 -0.68,-5.82 -0.12,-8.71 1.22,-2.54 4.02,-3.62 6.12,-5.28 11.19,-8.2 22.72,-15.92 33.97,-24.03 2.07,-1.38 3.81,-3.43 6.21,-4.21 10.43,4.63 20.72,9.58 30.98,14.58 5.31,2.91 10.96,5.45 15.57,9.45 2.4,3.49 1.61,8.06 2.86,11.96 1.78,6.55 11.26,7.81 15.95,3.76 3.51,-4.3 2.25,-10.23 1.02,-15.15 4.45,-1.6 10.36,-2.56 12.32,-7.51 1.26,-3.11 -1.24,-5.96 -3.5,-7.77 -2.51,-1.93 -4.99,-4.4 -8.28,-4.75 -4.43,-0.6 -6.6,6.12 -11.13,4.19 -13.95,-6.16 -27.76,-12.66 -41.57,-19.13 11.29,-7.76 22.23,-16.2 34.53,-22.35 4.87,-2.78 9.57,1.67 14.32,2.55 6.97,1.88 13.25,-6.78 10.68,-13.04 -2.31,-4.46 -7.58,-5.93 -12.05,-7.21 0.71,-4.34 2.36,-9.06 0.45,-13.32 -1.08,-2.68 -4.42,-3.59 -7,-2.71 -3.37,1.02 -6.94,2.01 -9.69,4.29 z"
         id="path20"
         inkscape:connector-curvature="0"
         style="opacity:1;fill:#000000;stroke:#000000;stroke-width:0.09375" />
    </g>
  </g>
</svg>
